<mxfile host="app.diagrams.net" agent="Mozilla/5.0 (Macintosh; Intel Mac OS X 10_15_7) AppleWebKit/537.36 (KHTML, like Gecko) Chrome/127.0.0.0 Safari/537.36" version="25.0.3">
  <diagram name="Страница — 1" id="rjwtParQEbAkgG_wAkbP">
    <mxGraphModel dx="1949" dy="713" grid="1" gridSize="10" guides="1" tooltips="1" connect="1" arrows="1" fold="1" page="1" pageScale="1" pageWidth="827" pageHeight="1169" math="0" shadow="0">
      <root>
        <mxCell id="0" />
        <mxCell id="1" parent="0" />
        <mxCell id="ZDp1IGQbHvpVX0Wt8oBI-7" style="edgeStyle=orthogonalEdgeStyle;rounded=0;orthogonalLoop=1;jettySize=auto;html=1;exitX=1;exitY=0.5;exitDx=0;exitDy=0;entryX=0;entryY=0.5;entryDx=0;entryDy=0;" edge="1" parent="1" source="ZDp1IGQbHvpVX0Wt8oBI-1" target="ZDp1IGQbHvpVX0Wt8oBI-2">
          <mxGeometry relative="1" as="geometry" />
        </mxCell>
        <mxCell id="ZDp1IGQbHvpVX0Wt8oBI-34" style="edgeStyle=orthogonalEdgeStyle;rounded=0;orthogonalLoop=1;jettySize=auto;html=1;exitX=0.5;exitY=0;exitDx=0;exitDy=0;entryX=0.5;entryY=0;entryDx=0;entryDy=0;" edge="1" parent="1" source="ZDp1IGQbHvpVX0Wt8oBI-1" target="ZDp1IGQbHvpVX0Wt8oBI-18">
          <mxGeometry relative="1" as="geometry">
            <Array as="points">
              <mxPoint x="100" y="70" />
              <mxPoint x="730" y="70" />
            </Array>
          </mxGeometry>
        </mxCell>
        <mxCell id="ZDp1IGQbHvpVX0Wt8oBI-1" value="Start" style="rounded=1;whiteSpace=wrap;html=1;" vertex="1" parent="1">
          <mxGeometry x="40" y="179" width="120" height="60" as="geometry" />
        </mxCell>
        <mxCell id="ZDp1IGQbHvpVX0Wt8oBI-8" style="edgeStyle=orthogonalEdgeStyle;rounded=0;orthogonalLoop=1;jettySize=auto;html=1;exitX=1;exitY=0.5;exitDx=0;exitDy=0;entryX=0;entryY=0.5;entryDx=0;entryDy=0;" edge="1" parent="1" source="ZDp1IGQbHvpVX0Wt8oBI-2" target="ZDp1IGQbHvpVX0Wt8oBI-3">
          <mxGeometry relative="1" as="geometry" />
        </mxCell>
        <mxCell id="ZDp1IGQbHvpVX0Wt8oBI-2" value="Spawn" style="rounded=1;whiteSpace=wrap;html=1;" vertex="1" parent="1">
          <mxGeometry x="200" y="179" width="120" height="60" as="geometry" />
        </mxCell>
        <mxCell id="ZDp1IGQbHvpVX0Wt8oBI-9" style="edgeStyle=orthogonalEdgeStyle;rounded=0;orthogonalLoop=1;jettySize=auto;html=1;exitX=0.25;exitY=1;exitDx=0;exitDy=0;entryX=0.25;entryY=0;entryDx=0;entryDy=0;" edge="1" parent="1" source="ZDp1IGQbHvpVX0Wt8oBI-3" target="ZDp1IGQbHvpVX0Wt8oBI-4">
          <mxGeometry relative="1" as="geometry" />
        </mxCell>
        <mxCell id="ZDp1IGQbHvpVX0Wt8oBI-12" style="edgeStyle=orthogonalEdgeStyle;rounded=0;orthogonalLoop=1;jettySize=auto;html=1;exitX=1;exitY=0.5;exitDx=0;exitDy=0;entryX=0;entryY=0.5;entryDx=0;entryDy=0;" edge="1" parent="1" source="ZDp1IGQbHvpVX0Wt8oBI-3" target="ZDp1IGQbHvpVX0Wt8oBI-5">
          <mxGeometry relative="1" as="geometry" />
        </mxCell>
        <mxCell id="ZDp1IGQbHvpVX0Wt8oBI-22" style="edgeStyle=orthogonalEdgeStyle;rounded=0;orthogonalLoop=1;jettySize=auto;html=1;exitX=0.75;exitY=0;exitDx=0;exitDy=0;entryX=0.75;entryY=1;entryDx=0;entryDy=0;" edge="1" parent="1" source="ZDp1IGQbHvpVX0Wt8oBI-3" target="ZDp1IGQbHvpVX0Wt8oBI-21">
          <mxGeometry relative="1" as="geometry" />
        </mxCell>
        <mxCell id="ZDp1IGQbHvpVX0Wt8oBI-27" style="edgeStyle=orthogonalEdgeStyle;rounded=0;orthogonalLoop=1;jettySize=auto;html=1;exitX=1;exitY=0.5;exitDx=0;exitDy=0;" edge="1" parent="1" source="ZDp1IGQbHvpVX0Wt8oBI-3" target="ZDp1IGQbHvpVX0Wt8oBI-18">
          <mxGeometry relative="1" as="geometry" />
        </mxCell>
        <mxCell id="ZDp1IGQbHvpVX0Wt8oBI-3" value="Moving" style="rounded=1;whiteSpace=wrap;html=1;" vertex="1" parent="1">
          <mxGeometry x="360" y="179" width="120" height="60" as="geometry" />
        </mxCell>
        <mxCell id="ZDp1IGQbHvpVX0Wt8oBI-10" style="edgeStyle=orthogonalEdgeStyle;rounded=0;orthogonalLoop=1;jettySize=auto;html=1;exitX=0.75;exitY=0;exitDx=0;exitDy=0;entryX=0.75;entryY=1;entryDx=0;entryDy=0;" edge="1" parent="1" source="ZDp1IGQbHvpVX0Wt8oBI-4" target="ZDp1IGQbHvpVX0Wt8oBI-3">
          <mxGeometry relative="1" as="geometry" />
        </mxCell>
        <mxCell id="ZDp1IGQbHvpVX0Wt8oBI-13" style="edgeStyle=orthogonalEdgeStyle;rounded=0;orthogonalLoop=1;jettySize=auto;html=1;exitX=1;exitY=0.5;exitDx=0;exitDy=0;endArrow=none;endFill=0;" edge="1" parent="1" source="ZDp1IGQbHvpVX0Wt8oBI-4">
          <mxGeometry relative="1" as="geometry">
            <mxPoint x="500" y="210" as="targetPoint" />
          </mxGeometry>
        </mxCell>
        <mxCell id="ZDp1IGQbHvpVX0Wt8oBI-4" value="Shifting" style="rounded=1;whiteSpace=wrap;html=1;" vertex="1" parent="1">
          <mxGeometry x="360" y="260" width="120" height="60" as="geometry" />
        </mxCell>
        <mxCell id="ZDp1IGQbHvpVX0Wt8oBI-14" style="edgeStyle=orthogonalEdgeStyle;rounded=0;orthogonalLoop=1;jettySize=auto;html=1;exitX=0.5;exitY=0;exitDx=0;exitDy=0;" edge="1" parent="1" source="ZDp1IGQbHvpVX0Wt8oBI-5">
          <mxGeometry relative="1" as="geometry">
            <mxPoint x="260" y="240" as="targetPoint" />
            <Array as="points">
              <mxPoint x="580" y="350" />
              <mxPoint x="260" y="350" />
            </Array>
          </mxGeometry>
        </mxCell>
        <mxCell id="ZDp1IGQbHvpVX0Wt8oBI-15" style="edgeStyle=orthogonalEdgeStyle;rounded=0;orthogonalLoop=1;jettySize=auto;html=1;exitX=0.5;exitY=1;exitDx=0;exitDy=0;" edge="1" parent="1" source="ZDp1IGQbHvpVX0Wt8oBI-5" target="ZDp1IGQbHvpVX0Wt8oBI-6">
          <mxGeometry relative="1" as="geometry" />
        </mxCell>
        <mxCell id="ZDp1IGQbHvpVX0Wt8oBI-5" value="Attaching" style="rounded=1;whiteSpace=wrap;html=1;" vertex="1" parent="1">
          <mxGeometry x="520" y="260" width="120" height="60" as="geometry" />
        </mxCell>
        <mxCell id="ZDp1IGQbHvpVX0Wt8oBI-16" style="edgeStyle=orthogonalEdgeStyle;rounded=0;orthogonalLoop=1;jettySize=auto;html=1;exitX=0;exitY=0.5;exitDx=0;exitDy=0;entryX=0.5;entryY=1;entryDx=0;entryDy=0;" edge="1" parent="1" source="ZDp1IGQbHvpVX0Wt8oBI-6" target="ZDp1IGQbHvpVX0Wt8oBI-1">
          <mxGeometry relative="1" as="geometry" />
        </mxCell>
        <mxCell id="ZDp1IGQbHvpVX0Wt8oBI-24" style="edgeStyle=orthogonalEdgeStyle;rounded=0;orthogonalLoop=1;jettySize=auto;html=1;exitX=1;exitY=0.5;exitDx=0;exitDy=0;entryX=0.5;entryY=1;entryDx=0;entryDy=0;" edge="1" parent="1" source="ZDp1IGQbHvpVX0Wt8oBI-6" target="ZDp1IGQbHvpVX0Wt8oBI-18">
          <mxGeometry relative="1" as="geometry" />
        </mxCell>
        <mxCell id="ZDp1IGQbHvpVX0Wt8oBI-6" value="Game Over" style="rounded=1;whiteSpace=wrap;html=1;" vertex="1" parent="1">
          <mxGeometry x="520" y="400" width="120" height="60" as="geometry" />
        </mxCell>
        <mxCell id="ZDp1IGQbHvpVX0Wt8oBI-17" value="&lt;p dir=&quot;auto&quot; data-sourcepos=&quot;89:1-89:76&quot;&gt;Данный КА состоит из следующих состояний:&lt;/p&gt;&lt;ul dir=&quot;auto&quot; data-sourcepos=&quot;91:1-97:0&quot;&gt;&lt;li data-sourcepos=&quot;91:1-91:153&quot;&gt;&lt;b&gt;Старт&lt;/b&gt; — состояние, в котором игра ждет, пока игрок нажмет кнопку готовности к игре.&lt;/li&gt;&lt;br&gt;&lt;li data-sourcepos=&quot;92:1-92:207&quot;&gt;&lt;b&gt;Спавн&lt;/b&gt; — состояние, в которое переходит игра при создании очередного блока и выбора следующего блока для спавна.&lt;/li&gt;&lt;br&gt;&lt;li data-sourcepos=&quot;93:1-93:238&quot;&gt;&lt;b&gt;Перемещение&lt;/b&gt; — основное игровое состояние с обработкой ввода от пользователя: поворот блоков/перемещение блоков по горизонтали.&lt;/li&gt;&lt;br&gt;&lt;li data-sourcepos=&quot;94:1-94:226&quot;&gt;&lt;b&gt;Сдвиг&lt;/b&gt; — состояние, в которое переходит игра после истечения таймера. В нем текущий блок перемещается вниз на один уровень.&lt;/li&gt;&lt;br&gt;&lt;li data-sourcepos=&quot;95:1-95:556&quot;&gt;&lt;b&gt;Соединение&lt;/b&gt; — состояние, в которое переходит игра после «соприкосновения» текущего блока с уже упавшими или с землей. Если образуются заполненные линии, то она уничтожается, и остальные блоки смещаются вниз. Если блок останавливается в самом верхнем ряду, то игра переходит в состояние «игра окончена».&lt;/li&gt;&lt;br&gt;&lt;li data-sourcepos=&quot;96:1-97:0&quot;&gt;&lt;b&gt;Игра окончена&lt;/b&gt; — игра окончена.&lt;/li&gt;&lt;/ul&gt;" style="text;html=1;align=left;verticalAlign=middle;whiteSpace=wrap;rounded=0;" vertex="1" parent="1">
          <mxGeometry x="40" y="520" width="580" height="290" as="geometry" />
        </mxCell>
        <mxCell id="ZDp1IGQbHvpVX0Wt8oBI-33" style="edgeStyle=orthogonalEdgeStyle;rounded=0;orthogonalLoop=1;jettySize=auto;html=1;exitX=1;exitY=0.5;exitDx=0;exitDy=0;entryX=0;entryY=0.5;entryDx=0;entryDy=0;" edge="1" parent="1" source="ZDp1IGQbHvpVX0Wt8oBI-18" target="ZDp1IGQbHvpVX0Wt8oBI-31">
          <mxGeometry relative="1" as="geometry" />
        </mxCell>
        <mxCell id="ZDp1IGQbHvpVX0Wt8oBI-18" value="Terminate" style="rounded=1;whiteSpace=wrap;html=1;" vertex="1" parent="1">
          <mxGeometry x="670" y="300" width="120" height="60" as="geometry" />
        </mxCell>
        <mxCell id="ZDp1IGQbHvpVX0Wt8oBI-23" style="edgeStyle=orthogonalEdgeStyle;rounded=0;orthogonalLoop=1;jettySize=auto;html=1;exitX=0.25;exitY=1;exitDx=0;exitDy=0;entryX=0.25;entryY=0;entryDx=0;entryDy=0;" edge="1" parent="1" source="ZDp1IGQbHvpVX0Wt8oBI-21" target="ZDp1IGQbHvpVX0Wt8oBI-3">
          <mxGeometry relative="1" as="geometry" />
        </mxCell>
        <mxCell id="ZDp1IGQbHvpVX0Wt8oBI-25" style="edgeStyle=orthogonalEdgeStyle;rounded=0;orthogonalLoop=1;jettySize=auto;html=1;exitX=1;exitY=0.5;exitDx=0;exitDy=0;" edge="1" parent="1" source="ZDp1IGQbHvpVX0Wt8oBI-21" target="ZDp1IGQbHvpVX0Wt8oBI-18">
          <mxGeometry relative="1" as="geometry">
            <Array as="points">
              <mxPoint x="730" y="130" />
            </Array>
          </mxGeometry>
        </mxCell>
        <mxCell id="ZDp1IGQbHvpVX0Wt8oBI-21" value="Pause" style="rounded=1;whiteSpace=wrap;html=1;" vertex="1" parent="1">
          <mxGeometry x="360" y="100" width="120" height="60" as="geometry" />
        </mxCell>
        <mxCell id="ZDp1IGQbHvpVX0Wt8oBI-30" style="edgeStyle=orthogonalEdgeStyle;rounded=0;orthogonalLoop=1;jettySize=auto;html=1;exitX=1;exitY=0.5;exitDx=0;exitDy=0;entryX=0;entryY=0.5;entryDx=0;entryDy=0;" edge="1" parent="1" source="ZDp1IGQbHvpVX0Wt8oBI-29" target="ZDp1IGQbHvpVX0Wt8oBI-1">
          <mxGeometry relative="1" as="geometry" />
        </mxCell>
        <mxCell id="ZDp1IGQbHvpVX0Wt8oBI-29" value="" style="ellipse;whiteSpace=wrap;html=1;aspect=fixed;fillColor=#000000;" vertex="1" parent="1">
          <mxGeometry x="-10" y="199" width="20" height="20" as="geometry" />
        </mxCell>
        <mxCell id="ZDp1IGQbHvpVX0Wt8oBI-31" value="" style="ellipse;whiteSpace=wrap;html=1;aspect=fixed;fillColor=#000000;" vertex="1" parent="1">
          <mxGeometry x="820" y="320" width="20" height="20" as="geometry" />
        </mxCell>
      </root>
    </mxGraphModel>
  </diagram>
</mxfile>
